<svg width="757" height="750" viewBox="0 0 757 750" fill="none" xmlns="http://www.w3.org/2000/svg">
<path d="M357.572 0.308123C354.77 0.603083 345.776 1.63544 337.666 2.52032C269.395 9.89432 203.189 36.1457 148.042 77.8825C86.1121 124.781 38.485 193.212 15.0401 269.311C8.55223 290.254 7.37261 295.268 3.24395 321.372C0.589809 339.217 0 348.361 0 382.134C0 425.345 1.17962 434.194 11.0589 472.096C25.0669 525.779 49.9863 573.12 90.2408 621.641C102.627 636.389 110.294 643.91 129.758 659.986C190.066 709.834 250.226 736.233 328.081 746.704C353.296 750.096 404.904 750.096 429.086 746.556C461.968 741.837 495.145 733.578 520.064 724.139C537.611 717.503 576.538 697.593 592.758 686.974C656.605 645.385 712.047 574.742 736.966 502.92C749.647 466.492 755.398 433.604 756.725 390.982C757.757 356.325 755.988 335.382 749.647 303.969C737.114 242.618 711.752 189.525 670.17 137.464C644.071 104.871 622.838 85.2565 588.04 61.8072C532.598 24.3473 459.314 1.63544 390.011 0.160643C374.971 -0.134317 360.373 0.0131631 357.572 0.308123ZM418.764 35.5558C481.874 43.6672 538.791 65.3468 583.321 98.3823C599.098 110.181 630.063 140.561 644.661 158.702C685.358 209.14 708.95 261.053 719.714 323.584C732.69 398.209 715.586 488.319 676.216 553.21C657.932 583.296 626.082 620.756 602.637 639.633C554.715 678.126 502.812 700.838 434.984 712.783C416.553 716.028 347.692 716.47 328.819 713.521C303.752 709.539 273.082 702.017 252.586 694.643C234.597 688.154 198.471 670.014 182.104 659.101C156.742 642.288 127.399 615.594 105.281 589.343C97.6134 580.347 79.4768 552.62 71.2194 537.725C46.4475 492.743 33.1768 437.881 33.1768 381.249C33.1768 326.681 42.3188 284.207 65.0264 233.769C78.7395 203.24 106.166 162.831 132.265 134.81C159.396 105.756 203.337 75.5229 241.084 59.89C266.594 49.4189 310.092 38.2105 337.666 35.1134C357.277 32.9012 399.596 33.1961 418.764 35.5558Z" fill="black"/>
<path d="M185.79 285.534C156.004 292.024 134.919 312.818 126.219 344.526C117.962 374.17 125.777 406.173 146.862 429.18C166.768 451.007 204.516 457.054 235.039 443.19C242.117 439.946 247.425 435.816 256.419 426.673C274.261 408.533 280.896 392.605 280.896 367.386C280.896 346.296 275.588 330.516 262.76 313.851C249.932 297.038 226.782 285.682 203.484 284.65C196.996 284.355 189.034 284.797 185.79 285.534ZM213.806 314.146C227.224 324.322 226.487 342.167 212.331 354.555C205.401 360.749 195.079 361.192 185.79 355.587C177.385 350.721 174.141 343.936 175.026 332.581C175.616 325.059 176.353 323.142 180.776 318.57C183.578 315.62 187.854 312.228 190.213 311.196C196.849 308.099 207.465 309.426 213.806 314.146Z" fill="black"/>
<path d="M538.938 286.419C508.71 292.908 484.233 316.505 476.713 346.591C472.437 363.404 473.469 384.198 479.22 398.356C492.933 432.424 519.032 450.712 553.683 450.712C576.686 450.712 593.643 443.633 609.568 427.41C629.916 406.763 638.026 381.396 633.307 353.375C627.557 318.717 604.997 293.941 572.115 286.272C561.203 283.617 551.471 283.617 538.938 286.419ZM574.032 314.588C581.404 320.192 583.911 324.911 583.763 333.908C583.763 343.789 580.667 350.278 574.032 355.145C570.05 357.947 567.249 358.537 558.844 358.537C550.144 358.537 547.785 357.947 543.656 354.85C533.187 347.033 530.386 336.415 535.841 324.469C537.316 321.077 540.56 316.947 543.067 315.325C551.766 308.983 566.069 308.689 574.032 314.588Z" fill="black"/>
<path d="M309.502 465.312C298.001 472.392 300.803 486.992 316.433 501.445C335.601 519.29 378.952 527.696 408 519.143C420.239 515.456 437.786 505.722 445.748 498.053C457.544 486.845 459.166 475.194 450.172 467.672C443.831 462.215 438.818 462.953 429.823 470.179C418.469 479.471 415.078 481.535 406.968 483.895C379.984 492.154 351.084 488.024 335.601 473.571C322.478 461.625 317.907 460.151 309.502 465.312Z" fill="black"/>
</svg>
