<svg width="80" height="80" viewBox="0 0 80 80" fill="none" xmlns="http://www.w3.org/2000/svg">
<g clip-path="url(#clip0_164_3)">
<path d="M27.9809 36.4928C26.7692 36.4928 25.6597 36.3648 24.6529 36.1088C23.6629 35.8528 22.8012 35.5029 22.0672 35.0592C21.3333 34.6155 20.7617 34.0864 20.3521 33.472C19.9596 32.8405 19.7633 32.1664 19.7633 31.4496C19.7633 30.7157 19.9596 30.0416 20.3521 29.4272C20.7617 28.8128 21.3333 28.2837 22.0672 27.84C22.8012 27.3963 23.6629 27.0464 24.6529 26.7904C25.6597 26.5344 26.7692 26.4064 27.9809 26.4064C29.1756 26.4064 30.2764 26.5344 31.2832 26.7904C32.2901 27.0464 33.1605 27.3963 33.8944 27.84C34.6284 28.2837 35.1916 28.8128 35.584 29.4272C35.9936 30.0416 36.1985 30.7157 36.1985 31.4496C36.1985 32.1664 35.9936 32.8405 35.584 33.472C35.1916 34.0864 34.6284 34.6155 33.8944 35.0592C33.1605 35.5029 32.2901 35.8528 31.2832 36.1088C30.2764 36.3648 29.1756 36.4928 27.9809 36.4928ZM38.9632 25.1008H16.9984C16.7596 25.1008 16.6145 25.0581 16.5633 24.9728C16.5121 24.8875 16.4865 24.7509 16.4865 24.5632V22.72C16.4865 22.5323 16.5205 22.3957 16.5889 22.3104C16.6572 22.2251 16.7936 22.1824 16.9984 22.1824H25.2928V18.2912C25.2928 18.1035 25.3269 17.9755 25.3952 17.9072C25.4805 17.8389 25.6256 17.8048 25.8304 17.8048H28.3392C28.544 17.8048 28.6805 17.8389 28.7488 17.9072C28.8172 17.9755 28.8512 18.1035 28.8512 18.2912V22.1824H38.9632C39.1509 22.1824 39.2876 22.2251 39.3728 22.3104C39.4581 22.3787 39.5008 22.5152 39.5008 22.72V24.5632C39.5008 24.7509 39.4668 24.8875 39.3984 24.9728C39.3301 25.0581 39.1852 25.1008 38.9632 25.1008ZM35.7632 20.6208C35.7292 20.8768 35.6609 21.0304 35.5585 21.0816C35.4561 21.1157 35.2853 21.1243 35.0464 21.1072L32.7425 20.9024C32.5205 20.8683 32.3925 20.8 32.3585 20.6976C32.3413 20.5952 32.35 20.4587 32.384 20.288C32.4524 19.9125 32.512 19.5115 32.5632 19.0848C32.6316 18.6411 32.6828 18.2229 32.7168 17.8304C32.7509 17.4379 32.7765 17.088 32.7936 16.7808C32.8108 16.4736 32.8192 16.2432 32.8192 16.0896C32.8192 15.8336 32.7852 15.6544 32.7168 15.552C32.6485 15.4325 32.4524 15.3728 32.128 15.3728H20.5568C20.3861 15.3728 20.2497 15.3557 20.1473 15.3216C20.062 15.2704 20.0193 15.1339 20.0193 14.912V12.9152C20.0193 12.7275 20.062 12.608 20.1473 12.5568C20.2497 12.5056 20.3861 12.48 20.5568 12.48H34.5089C35.1233 12.48 35.5756 12.6165 35.8657 12.8896C36.1557 13.1456 36.3008 13.5979 36.3008 14.2464C36.3008 15.1851 36.2668 16.1749 36.1985 17.216C36.1472 18.24 36.0021 19.3749 35.7632 20.6208ZM27.9809 29.1968C27.2641 29.1968 26.6156 29.2651 26.0352 29.4016C25.4549 29.5211 24.96 29.6917 24.5504 29.9136C24.1408 30.1184 23.8252 30.3573 23.6032 30.6304C23.3813 30.9035 23.2704 31.1851 23.2704 31.4752C23.2704 31.7483 23.3813 32.0213 23.6032 32.2944C23.8252 32.5504 24.1408 32.7893 24.5504 33.0112C24.96 33.216 25.4549 33.3867 26.0352 33.5232C26.6156 33.6427 27.2641 33.7024 27.9809 33.7024C28.6977 33.7024 29.3461 33.6427 29.9265 33.5232C30.5068 33.3867 31.0016 33.216 31.4112 33.0112C31.8208 32.7893 32.1365 32.5504 32.3585 32.2944C32.5804 32.0213 32.6912 31.7483 32.6912 31.4752C32.6912 31.1851 32.5804 30.9035 32.3585 30.6304C32.1365 30.3573 31.8208 30.1184 31.4112 29.9136C31.0016 29.6917 30.5068 29.5211 29.9265 29.4016C29.3461 29.2651 28.6977 29.1968 27.9809 29.1968ZM60.7855 36.3392H58.2255C58.0376 36.3392 57.9096 36.3051 57.8415 36.2368C57.7732 36.1856 57.7391 36.0576 57.7391 35.8528V12.2752C57.7391 12.0875 57.7732 11.9595 57.8415 11.8912C57.9096 11.8229 58.0376 11.7888 58.2255 11.7888H60.7855C60.9732 11.7888 61.1012 11.8229 61.1695 11.8912C61.2376 11.9595 61.2719 12.0875 61.2719 12.2752V35.8528C61.2719 36.0576 61.2376 36.1856 61.1695 36.2368C61.1012 36.3051 60.9732 36.3392 60.7855 36.3392ZM43.8383 31.0656C43.5992 31.2021 43.4116 31.2704 43.2751 31.2704C43.1556 31.2704 43.0276 31.1765 42.8911 30.9888L41.6879 29.1968C41.5684 29.0261 41.5256 28.864 41.5599 28.7104C41.6111 28.5568 41.7135 28.4373 41.8671 28.352C44.444 26.9013 46.4751 25.2288 47.9599 23.3344C49.4447 21.44 50.3492 19.3749 50.6735 17.1392C50.7247 16.7808 50.5881 16.6016 50.2639 16.6016H43.1215C42.8996 16.6016 42.7631 16.5675 42.7119 16.4992C42.6607 16.4139 42.6351 16.2773 42.6351 16.0896V14.1696C42.6351 13.9648 42.6692 13.8368 42.7375 13.7856C42.8056 13.7173 42.9336 13.6832 43.1215 13.6832H52.4399C53.2932 13.6832 53.8564 13.8624 54.1295 14.2208C54.4196 14.5621 54.5391 15.1083 54.4879 15.8592C54.3855 17.3952 54.0696 18.8885 53.5407 20.3392C53.0116 21.7899 52.2948 23.1637 51.3903 24.4608C50.4856 25.7579 49.3935 26.9696 48.1135 28.096C46.8504 29.2053 45.4255 30.1952 43.8383 31.0656ZM38.9888 59.456H29.7728V67.648C29.7728 67.9893 29.6021 68.16 29.2608 68.16H26.7265C26.3852 68.16 26.2145 67.9893 26.2145 67.648V59.456H16.9984C16.7765 59.456 16.6316 59.4048 16.5633 59.3024C16.5121 59.2 16.4865 59.0549 16.4865 58.8672V57.1008C16.4865 56.9131 16.5121 56.7765 16.5633 56.6912C16.6316 56.5888 16.7765 56.5376 16.9984 56.5376H38.9888C39.3472 56.5376 39.5264 56.7253 39.5264 57.1008V58.8672C39.5264 59.2597 39.3472 59.456 38.9888 59.456ZM19.8657 54.976C19.6268 55.0443 19.4645 55.0528 19.3793 55.0016C19.3281 54.9675 19.2768 54.9163 19.2256 54.848C19.1916 54.7627 19.1573 54.6944 19.1232 54.6432L18.176 52.7744C18.0396 52.4843 18.1504 52.2795 18.5088 52.16C20.9836 51.3408 22.8437 50.2571 24.0896 48.9088C25.3525 47.5605 26.0864 45.9989 26.2912 44.224C26.3253 43.9851 26.368 43.84 26.4192 43.7888C26.4876 43.7376 26.6412 43.7205 26.88 43.7376L29.2097 43.84C29.6021 43.8571 29.79 44.0363 29.7728 44.3776C29.7557 44.5995 29.7388 44.8128 29.7217 45.0176C29.7045 45.2224 29.6789 45.4272 29.6448 45.632C29.9349 46.2805 30.3445 46.912 30.8736 47.5264C31.4197 48.1237 32.0428 48.6869 32.7425 49.216C33.4421 49.728 34.2017 50.1888 35.0208 50.5984C35.8572 50.9909 36.7105 51.3152 37.5809 51.5712C37.8197 51.6395 37.9392 51.7333 37.9392 51.8528C37.9564 51.9723 37.9221 52.1344 37.8369 52.3392L36.9921 54.1312C36.958 54.1653 36.9237 54.2165 36.8896 54.2848C36.8725 54.3531 36.8469 54.4043 36.8128 54.4384C36.7788 54.4555 36.7276 54.4725 36.6593 54.4896C36.608 54.4896 36.5228 54.4725 36.4032 54.4384C35.6865 54.3019 34.9356 54.0715 34.1504 53.7472C33.3824 53.4229 32.6316 53.0304 31.8977 52.5696C31.1637 52.1088 30.4725 51.5968 29.824 51.0336C29.1925 50.4704 28.6464 49.8816 28.1856 49.2672C27.2981 50.6325 26.1292 51.7931 24.6784 52.7488C23.2277 53.7045 21.6236 54.4469 19.8657 54.976ZM59.3775 67.904H47.9087C47.4991 67.904 47.1663 67.8784 46.9103 67.8272C46.6543 67.776 46.4495 67.6821 46.2959 67.5456C46.1593 67.4261 46.0568 67.2469 45.9887 67.008C45.9375 66.7691 45.9119 66.4533 45.9119 66.0608V59.2256C45.9119 58.9013 46.074 58.7392 46.3983 58.7392H48.9583C49.146 58.7392 49.274 58.7733 49.3423 58.8416C49.4276 58.9099 49.4703 59.0379 49.4703 59.2256V60.7872H57.7903V59.0976C57.7903 58.7733 57.9524 58.6112 58.2767 58.6112H60.8879C61.0415 58.6112 61.1524 58.6453 61.2207 58.7136C61.306 58.7819 61.3487 58.9099 61.3487 59.0976V66.1376C61.3487 66.8032 61.2207 67.264 60.9647 67.52C60.7256 67.776 60.1967 67.904 59.3775 67.904ZM43.3775 58.4576C43.0872 58.5429 42.8825 58.5771 42.7631 58.56C42.6607 58.5429 42.5668 58.4576 42.4815 58.304L41.6623 56.5888C41.4916 56.2645 41.5855 56.0256 41.9439 55.872C43.6504 55.1211 45.1609 54.2933 46.4751 53.3888C47.8063 52.4843 48.7876 51.6224 49.4191 50.8032C49.7775 50.3595 49.7263 50.1376 49.2655 50.1376H43.2751C42.9508 50.1376 42.7887 49.9584 42.7887 49.6V47.936C42.7887 47.5776 42.9592 47.3984 43.3007 47.3984H52.1327C53.1567 47.3984 53.788 47.6373 54.0271 48.1152C54.2831 48.576 54.2404 49.2416 53.8991 50.112C53.7112 50.5899 53.4552 51.0677 53.1311 51.5456C52.8068 52.0235 52.4228 52.5013 51.9791 52.9792C52.3032 53.2181 52.636 53.4485 52.9775 53.6704C53.3359 53.8923 53.6856 54.0971 54.0271 54.2848C54.3684 54.4725 54.6927 54.6517 54.9999 54.8224C55.3071 54.976 55.5887 55.1125 55.8447 55.232C56.0324 55.3173 56.1263 55.4197 56.1263 55.5392C56.1263 55.6587 56.0836 55.7952 55.9983 55.9488L55.0767 57.5616C54.9231 57.8347 54.6584 57.8944 54.2831 57.7408C53.9928 57.6384 53.6687 57.4933 53.3103 57.3056C52.9519 57.1008 52.5764 56.8789 52.1839 56.64C51.7912 56.4011 51.3903 56.1365 50.9807 55.8464C50.588 55.5563 50.2041 55.2576 49.8287 54.9504C48.8729 55.7013 47.8404 56.3755 46.7311 56.9728C45.6216 57.5701 44.5039 58.0651 43.3775 58.4576ZM54.8463 53.5168C54.5048 53.5168 54.3343 53.3547 54.3343 53.0304V51.2128C54.3343 50.9909 54.3768 50.8544 54.4623 50.8032C54.5647 50.752 54.6927 50.7264 54.8463 50.7264H57.7647V44.2752C57.7647 44.0533 57.8159 43.9168 57.9183 43.8656C58.0207 43.8144 58.1487 43.7888 58.3023 43.7888H60.8367C61.0584 43.7888 61.1864 43.84 61.2207 43.9424C61.2719 44.0277 61.2975 44.1387 61.2975 44.2752V56.7936C61.2975 57.1179 61.1352 57.28 60.8111 57.28H58.2511C57.9268 57.28 57.7647 57.1264 57.7647 56.8192V53.5168H54.8463ZM51.5695 46.3232H45.3743C45.2376 46.3232 45.1096 46.2891 44.9903 46.2208C44.8879 46.1525 44.8367 46.0075 44.8367 45.7856V44.2752C44.8367 44.0533 44.8879 43.9083 44.9903 43.84C45.1096 43.7717 45.2376 43.7376 45.3743 43.7376H51.5695C51.9448 43.7376 52.1327 43.9253 52.1327 44.3008V45.7344C52.1327 46.1269 51.9448 46.3232 51.5695 46.3232ZM57.7903 63.552H49.4703V64.832C49.4703 64.9856 49.5556 65.0624 49.7263 65.0624H57.5343C57.7048 65.0624 57.7903 64.9856 57.7903 64.832V63.552Z" fill="white"/>
<path d="M77.6 2.40002H2.40002V77.6H77.6V2.40002Z" stroke="white" stroke-width="3"/>
</g>
<defs>
<clipPath id="clip0_164_3">
<rect width="80" height="80" fill="white"/>
</clipPath>
</defs>
</svg>
