<svg width="50" height="50" viewBox="0 0 50 50" fill="none" xmlns="http://www.w3.org/2000/svg">
<path d="M17.488 22.808C16.7307 22.808 16.0373 22.728 15.408 22.568C14.7893 22.408 14.2507 22.1893 13.792 21.912C13.3333 21.6347 12.976 21.304 12.72 20.92C12.4747 20.5253 12.352 20.104 12.352 19.656C12.352 19.1973 12.4747 18.776 12.72 18.392C12.976 18.008 13.3333 17.6773 13.792 17.4C14.2507 17.1227 14.7893 16.904 15.408 16.744C16.0373 16.584 16.7307 16.504 17.488 16.504C18.2347 16.504 18.9227 16.584 19.552 16.744C20.1813 16.904 20.7253 17.1227 21.184 17.4C21.6427 17.6773 21.9947 18.008 22.24 18.392C22.496 18.776 22.624 19.1973 22.624 19.656C22.624 20.104 22.496 20.5253 22.24 20.92C21.9947 21.304 21.6427 21.6347 21.184 21.912C20.7253 22.1893 20.1813 22.408 19.552 22.568C18.9227 22.728 18.2347 22.808 17.488 22.808ZM24.352 15.688H10.624C10.4747 15.688 10.384 15.6613 10.352 15.608C10.32 15.5547 10.304 15.4693 10.304 15.352V14.2C10.304 14.0827 10.3253 13.9973 10.368 13.944C10.4107 13.8907 10.496 13.864 10.624 13.864H15.808V11.432C15.808 11.3147 15.8293 11.2347 15.872 11.192C15.9253 11.1493 16.016 11.128 16.144 11.128H17.712C17.84 11.128 17.9253 11.1493 17.968 11.192C18.0107 11.2347 18.032 11.3147 18.032 11.432V13.864H24.352C24.4693 13.864 24.5547 13.8907 24.608 13.944C24.6613 13.9867 24.688 14.072 24.688 14.2V15.352C24.688 15.4693 24.6667 15.5547 24.624 15.608C24.5813 15.6613 24.4907 15.688 24.352 15.688ZM22.352 12.888C22.3307 13.048 22.288 13.144 22.224 13.176C22.16 13.1973 22.0533 13.2027 21.904 13.192L20.464 13.064C20.3253 13.0427 20.2453 13 20.224 12.936C20.2133 12.872 20.2187 12.7867 20.24 12.68C20.2827 12.4453 20.32 12.1947 20.352 11.928C20.3947 11.6507 20.4267 11.3893 20.448 11.144C20.4693 10.8987 20.4853 10.68 20.496 10.488C20.5067 10.296 20.512 10.152 20.512 10.056C20.512 9.896 20.4907 9.784 20.448 9.72C20.4053 9.64533 20.2827 9.608 20.08 9.608H12.848C12.7413 9.608 12.656 9.59733 12.592 9.576C12.5387 9.544 12.512 9.45867 12.512 9.32V8.072C12.512 7.95467 12.5387 7.88 12.592 7.848C12.656 7.816 12.7413 7.8 12.848 7.8H21.568C21.952 7.8 22.2347 7.88533 22.416 8.056C22.5973 8.216 22.688 8.49867 22.688 8.904C22.688 9.49067 22.6667 10.1093 22.624 10.76C22.592 11.4 22.5013 12.1093 22.352 12.888ZM17.488 18.248C17.04 18.248 16.6347 18.2907 16.272 18.376C15.9093 18.4507 15.6 18.5573 15.344 18.696C15.088 18.824 14.8907 18.9733 14.752 19.144C14.6133 19.3147 14.544 19.4907 14.544 19.672C14.544 19.8427 14.6133 20.0133 14.752 20.184C14.8907 20.344 15.088 20.4933 15.344 20.632C15.6 20.76 15.9093 20.8667 16.272 20.952C16.6347 21.0267 17.04 21.064 17.488 21.064C17.936 21.064 18.3413 21.0267 18.704 20.952C19.0667 20.8667 19.376 20.76 19.632 20.632C19.888 20.4933 20.0853 20.344 20.224 20.184C20.3627 20.0133 20.432 19.8427 20.432 19.672C20.432 19.4907 20.3627 19.3147 20.224 19.144C20.0853 18.9733 19.888 18.824 19.632 18.696C19.376 18.5573 19.0667 18.4507 18.704 18.376C18.3413 18.2907 17.936 18.248 17.488 18.248ZM37.9909 22.712H36.3909C36.2735 22.712 36.1935 22.6907 36.1509 22.648C36.1082 22.616 36.0869 22.536 36.0869 22.408V7.672C36.0869 7.55467 36.1082 7.47467 36.1509 7.432C36.1935 7.38933 36.2735 7.368 36.3909 7.368H37.9909C38.1082 7.368 38.1882 7.38933 38.2309 7.432C38.2735 7.47467 38.2949 7.55467 38.2949 7.672V22.408C38.2949 22.536 38.2735 22.616 38.2309 22.648C38.1882 22.6907 38.1082 22.712 37.9909 22.712ZM27.3989 19.416C27.2495 19.5013 27.1322 19.544 27.0469 19.544C26.9722 19.544 26.8922 19.4853 26.8069 19.368L26.0549 18.248C25.9802 18.1413 25.9535 18.04 25.9749 17.944C26.0069 17.848 26.0709 17.7733 26.1669 17.72C27.7775 16.8133 29.0469 15.768 29.9749 14.584C30.9029 13.4 31.4682 12.1093 31.6709 10.712C31.7029 10.488 31.6175 10.376 31.4149 10.376H26.9509C26.8122 10.376 26.7269 10.3547 26.6949 10.312C26.6629 10.2587 26.6469 10.1733 26.6469 10.056V8.856C26.6469 8.728 26.6682 8.648 26.7109 8.616C26.7535 8.57333 26.8335 8.552 26.9509 8.552H32.7749C33.3082 8.552 33.6602 8.664 33.8309 8.888C34.0122 9.10133 34.0869 9.44267 34.0549 9.912C33.9909 10.872 33.7935 11.8053 33.4629 12.712C33.1322 13.6187 32.6842 14.4773 32.1189 15.288C31.5535 16.0987 30.8709 16.856 30.0709 17.56C29.2815 18.2533 28.3909 18.872 27.3989 19.416ZM24.368 37.16H18.608V42.28C18.608 42.4933 18.5013 42.6 18.288 42.6H16.704C16.4907 42.6 16.384 42.4933 16.384 42.28V37.16H10.624C10.4853 37.16 10.3947 37.128 10.352 37.064C10.32 37 10.304 36.9093 10.304 36.792V35.688C10.304 35.5707 10.32 35.4853 10.352 35.432C10.3947 35.368 10.4853 35.336 10.624 35.336H24.368C24.592 35.336 24.704 35.4533 24.704 35.688V36.792C24.704 37.0373 24.592 37.16 24.368 37.16ZM12.416 34.36C12.2667 34.4027 12.1653 34.408 12.112 34.376C12.08 34.3547 12.048 34.3227 12.016 34.28C11.9947 34.2267 11.9733 34.184 11.952 34.152L11.36 32.984C11.2747 32.8027 11.344 32.6747 11.568 32.6C13.1147 32.088 14.2773 31.4107 15.056 30.568C15.8453 29.7253 16.304 28.7493 16.432 27.64C16.4533 27.4907 16.48 27.4 16.512 27.368C16.5547 27.336 16.6507 27.3253 16.8 27.336L18.256 27.4C18.5013 27.4107 18.6187 27.5227 18.608 27.736C18.5973 27.8747 18.5867 28.008 18.576 28.136C18.5653 28.264 18.5493 28.392 18.528 28.52C18.7093 28.9253 18.9653 29.32 19.296 29.704C19.6373 30.0773 20.0267 30.4293 20.464 30.76C20.9013 31.08 21.376 31.368 21.888 31.624C22.4107 31.8693 22.944 32.072 23.488 32.232C23.6373 32.2747 23.712 32.3333 23.712 32.408C23.7227 32.4827 23.7013 32.584 23.648 32.712L23.12 33.832C23.0987 33.8533 23.0773 33.8853 23.056 33.928C23.0453 33.9707 23.0293 34.0027 23.008 34.024C22.9867 34.0347 22.9547 34.0453 22.912 34.056C22.88 34.056 22.8267 34.0453 22.752 34.024C22.304 33.9387 21.8347 33.7947 21.344 33.592C20.864 33.3893 20.3947 33.144 19.936 32.856C19.4773 32.568 19.0453 32.248 18.64 31.896C18.2453 31.544 17.904 31.176 17.616 30.792C17.0613 31.6453 16.3307 32.3707 15.424 32.968C14.5173 33.5653 13.5147 34.0293 12.416 34.36ZM37.1109 42.44H29.9429C29.6869 42.44 29.4789 42.424 29.3189 42.392C29.1589 42.36 29.0309 42.3013 28.9349 42.216C28.8495 42.1413 28.7855 42.0293 28.7429 41.88C28.7109 41.7307 28.6949 41.5333 28.6949 41.288V37.016C28.6949 36.8133 28.7962 36.712 28.9989 36.712H30.5989C30.7162 36.712 30.7962 36.7333 30.8389 36.776C30.8922 36.8187 30.9189 36.8987 30.9189 37.016V37.992H36.1189V36.936C36.1189 36.7333 36.2202 36.632 36.4229 36.632H38.0549C38.1509 36.632 38.2202 36.6533 38.2629 36.696C38.3162 36.7387 38.3429 36.8187 38.3429 36.936V41.336C38.3429 41.752 38.2629 42.04 38.1029 42.2C37.9535 42.36 37.6229 42.44 37.1109 42.44ZM27.1109 36.536C26.9295 36.5893 26.8015 36.6107 26.7269 36.6C26.6629 36.5893 26.6042 36.536 26.5509 36.44L26.0389 35.368C25.9322 35.1653 25.9909 35.016 26.2149 34.92C27.2815 34.4507 28.2255 33.9333 29.0469 33.368C29.8789 32.8027 30.4922 32.264 30.8869 31.752C31.1109 31.4747 31.0789 31.336 30.7909 31.336H27.0469C26.8442 31.336 26.7429 31.224 26.7429 31V29.96C26.7429 29.736 26.8495 29.624 27.0629 29.624H32.5829C33.2229 29.624 33.6175 29.7733 33.7669 30.072C33.9269 30.36 33.9002 30.776 33.6869 31.32C33.5695 31.6187 33.4095 31.9173 33.2069 32.216C33.0042 32.5147 32.7642 32.8133 32.4869 33.112C32.6895 33.2613 32.8975 33.4053 33.1109 33.544C33.3349 33.6827 33.5535 33.8107 33.7669 33.928C33.9802 34.0453 34.1829 34.1573 34.3749 34.264C34.5669 34.36 34.7429 34.4453 34.9029 34.52C35.0202 34.5733 35.0789 34.6373 35.0789 34.712C35.0789 34.7867 35.0522 34.872 34.9989 34.968L34.4229 35.976C34.3269 36.1467 34.1615 36.184 33.9269 36.088C33.7455 36.024 33.5429 35.9333 33.3189 35.816C33.0949 35.688 32.8602 35.5493 32.6149 35.4C32.3695 35.2507 32.1189 35.0853 31.8629 34.904C31.6175 34.7227 31.3775 34.536 31.1429 34.344C30.5455 34.8133 29.9002 35.2347 29.2069 35.608C28.5135 35.9813 27.8149 36.2907 27.1109 36.536ZM34.2789 33.448C34.0655 33.448 33.9589 33.3467 33.9589 33.144V32.008C33.9589 31.8693 33.9855 31.784 34.0389 31.752C34.1029 31.72 34.1829 31.704 34.2789 31.704H36.1029V27.672C36.1029 27.5333 36.1349 27.448 36.1989 27.416C36.2629 27.384 36.3429 27.368 36.4389 27.368H38.0229C38.1615 27.368 38.2415 27.4 38.2629 27.464C38.2949 27.5173 38.3109 27.5867 38.3109 27.672V35.496C38.3109 35.6987 38.2095 35.8 38.0069 35.8H36.4069C36.2042 35.8 36.1029 35.704 36.1029 35.512V33.448H34.2789ZM32.2309 28.952H28.3589C28.2735 28.952 28.1935 28.9307 28.1189 28.888C28.0549 28.8453 28.0229 28.7547 28.0229 28.616V27.672C28.0229 27.5333 28.0549 27.4427 28.1189 27.4C28.1935 27.3573 28.2735 27.336 28.3589 27.336H32.2309C32.4655 27.336 32.5829 27.4533 32.5829 27.688V28.584C32.5829 28.8293 32.4655 28.952 32.2309 28.952ZM36.1189 39.72H30.9189V40.52C30.9189 40.616 30.9722 40.664 31.0789 40.664H35.9589C36.0655 40.664 36.1189 40.616 36.1189 40.52V39.72Z" fill="#4A68F5"/>
<rect x="1.5" y="1.5" width="47" height="47" stroke="#4A68F5" stroke-width="3"/>
</svg>
