<svg width="196" height="275" viewBox="0 0 196 275" fill="none" xmlns="http://www.w3.org/2000/svg">
<rect x="34" y="26" width="126" height="44" fill="white"/>
<rect x="28" y="68" width="140" height="109" fill="white"/>
<path d="M91.4315 0.26629C77.8656 1.33416 63.1132 5.44744 52.8695 10.945C36.4164 19.8044 23.5624 31.7883 14.8217 46.5803C6.95105 59.7507 3.11462 70.1525 0.978882 83.9162C-0.326294 92.1428 -0.326294 108.161 0.978882 117.06C2.0072 123.942 4.6571 134.858 6.95105 141.383C8.73083 146.367 14.703 160.763 17.5902 166.894C22.3363 176.979 27.0033 186.353 29.0204 189.833C49.4286 224.836 63.8646 245.283 80.2782 262.528C89.889 272.613 92.8158 274.63 97.641 274.511C101.438 274.432 107.647 270.121 113.619 263.358C130.824 244.018 137.825 234.723 151.074 213.761C161.476 197.269 168.991 183.663 176.901 166.894C185.562 148.503 189.913 136.598 192.642 123.981C194.778 114.054 195.055 111.246 195.055 99.4596C195.055 90.0466 194.936 88.1481 194.145 83.4416C191.218 66.6721 184.02 50.298 173.855 37.3649C168.002 29.8898 162.346 24.3923 154.357 18.4201C148.464 14.03 144.113 11.5383 135.135 7.42498C123.151 1.92742 105.828 -0.920233 91.4315 0.26629ZM103.811 26.4885C112.077 27.1213 121.49 29.6525 127.818 32.9352C134.186 36.2575 142.848 43.0602 147.712 48.5578C152.854 54.3718 156.057 59.3552 159.182 66.237C163.651 76.1247 164.759 80.7126 165.075 90.5607C165.471 103.612 163.295 113.421 157.6 124.693C152.973 133.75 144.232 143.48 134.858 149.926C131.061 152.576 122.202 156.452 116.111 158.153C106.421 160.842 94.4374 161.515 85.578 159.854C76.1649 158.074 66.8705 154.277 59.7909 149.294C48.8353 141.581 42.3885 134.502 37.2469 124.495C30.3651 111.167 28.1107 95.5441 30.8793 80.9499C31.5516 77.509 34.5575 67.2653 35.0717 66.593C35.2694 66.3952 35.9418 65.0505 36.535 63.6266C37.1678 62.2424 38.5521 59.7902 39.62 58.1686C40.7274 56.5866 41.9535 54.6486 42.4281 53.8971C44.8407 50.0212 51.5248 43.2975 57.2201 39.1052C63.8646 34.2009 76.5209 28.9011 84.9056 27.4377C92.2621 26.1721 96.8895 25.9347 103.811 26.4885Z" fill="#4A68F5"/>
<path d="M94.0814 45.5915C92.3807 46.1057 90.2845 48.0041 75.4134 62.4006C56.3499 80.8312 51.4061 85.9728 50.8524 87.7922C50.18 90.0466 50.971 92.5383 52.909 94.3181C54.2537 95.5046 54.7284 95.7023 56.429 95.7023C58.2879 95.7023 58.5252 95.5837 61.0565 93.2106C62.5199 91.8659 64.0228 90.4025 64.3392 89.9675C64.6556 89.5324 70.2718 83.9162 76.7977 77.4694C95.0306 59.4738 95.5052 59.0388 98.1947 59.7507C99.7767 60.1857 109.427 69.1242 124.456 84.0744L136.163 95.7023H138.378C140.198 95.7023 140.83 95.5046 141.859 94.674C144.232 92.6569 144.944 88.7809 143.401 86.2101C142.927 85.4587 139.565 81.8991 135.887 78.3L129.163 71.7741L129.202 63.3498C129.202 53.9367 129.044 53.1852 126.711 51.1286C125.05 49.6652 123.23 49.2302 120.501 49.5466C116.863 49.9816 115.36 51.8405 115.36 55.9538C115.36 58.3268 115.083 58.5641 113.936 57.2985C111.84 54.9255 101.952 46.4616 100.528 45.8288C98.7879 45.0378 96.0985 44.9191 94.0814 45.5915Z" fill="#4A68F5"/>
<path d="M82.2952 81.9387C74.4246 89.8488 67.2659 97.2448 66.3562 98.3918L64.7346 100.528V113.817C64.7346 126.552 64.7742 127.145 65.5652 128.846C67.0286 131.852 67.78 132.089 76.0857 132.089H83.3235L84.5891 130.942L85.8943 129.795L85.9338 117.376C85.9734 103.415 85.8943 103.889 88.9792 101.635L90.6008 100.448H97.4827C105.274 100.448 106.184 100.725 107.924 103.533C108.794 104.957 108.834 105.313 109.031 117.376L109.229 129.795L110.534 130.942L111.8 132.089H118.524C125.999 132.089 127.027 131.852 129.005 129.756L130.191 128.49L130.31 114.133L130.428 99.7761L128.332 97.8776C125.168 94.9509 101.161 71.2204 99.4207 69.2824C98.5901 68.3727 97.6409 67.6213 97.2454 67.6213C96.8894 67.6213 90.1658 74.0681 82.2952 81.9387Z" fill="#4A68F5"/>
</svg>
